<svg xmlns="http://www.w3.org/2000/svg" viewBox="0 0 1230.00 479.35">
  <style>
    .key-bg { fill: #f5f5f5; stroke: #d4d4d4; stroke-width: 1; }
    .key-index { fill: #171717; font-family: ui-monospace, SFMono-Regular, "SF Mono", Menlo, Consolas, "Liberation Mono", monospace; font-weight: 700; text-anchor: middle; dominant-baseline: central; }
    .key-part { font-family: system-ui, -apple-system, BlinkMacSystemFont, "Segoe UI", Roboto, sans-serif; text-anchor: middle; dominant-baseline: central; }
    @media (prefers-color-scheme: dark) {
      .key-bg { fill: #2a2a2a; stroke: #404040; }
      .key-index { fill: #e5e5e5; }
    }
    .key-bg.part-0 { stroke: #f59e0b; }
    .key-part.part-0 { fill: #f59e0b; }
    .key-bg.part-1 { stroke: #14b8a6; }
    .key-part.part-1 { fill: #14b8a6; }
  </style>
  <g>
    <path class="key-bg part-0" d="M 376.00,57.00 L 434.00,57.00 Q 438.00,57.00 438.00,61.00 L 438.00,119.00 Q 438.00,123.00 434.00,123.00 L 376.00,123.00 Q 372.00,123.00 372.00,119.00 L 372.00,61.00 Q 372.00,57.00 376.00,57.00 Z" />
    <path class="key-bg part-0" d="M 306.00,39.50 L 364.00,39.50 Q 368.00,39.50 368.00,43.50 L 368.00,101.50 Q 368.00,105.50 364.00,105.50 L 306.00,105.50 Q 302.00,105.50 302.00,101.50 L 302.00,43.50 Q 302.00,39.50 306.00,39.50 Z" />
    <path class="key-bg part-0" d="M 236.00,22.00 L 294.00,22.00 Q 298.00,22.00 298.00,26.00 L 298.00,84.00 Q 298.00,88.00 294.00,88.00 L 236.00,88.00 Q 232.00,88.00 232.00,84.00 L 232.00,26.00 Q 232.00,22.00 236.00,22.00 Z" />
    <path class="key-bg part-0" d="M 166.00,39.50 L 224.00,39.50 Q 228.00,39.50 228.00,43.50 L 228.00,101.50 Q 228.00,105.50 224.00,105.50 L 166.00,105.50 Q 162.00,105.50 162.00,101.50 L 162.00,43.50 Q 162.00,39.50 166.00,39.50 Z" />
    <path class="key-bg part-0" d="M 96.00,74.50 L 154.00,74.50 Q 158.00,74.50 158.00,78.50 L 158.00,136.50 Q 158.00,140.50 154.00,140.50 L 96.00,140.50 Q 92.00,140.50 92.00,136.50 L 92.00,78.50 Q 92.00,74.50 96.00,74.50 Z" />
    <path class="key-bg part-0" d="M 26.00,74.50 L 84.00,74.50 Q 88.00,74.50 88.00,78.50 L 88.00,136.50 Q 88.00,140.50 84.00,140.50 L 26.00,140.50 Q 22.00,140.50 22.00,136.50 L 22.00,78.50 Q 22.00,74.50 26.00,74.50 Z" />
    <path class="key-bg part-0" d="M 376.00,127.00 L 434.00,127.00 Q 438.00,127.00 438.00,131.00 L 438.00,189.00 Q 438.00,193.00 434.00,193.00 L 376.00,193.00 Q 372.00,193.00 372.00,189.00 L 372.00,131.00 Q 372.00,127.00 376.00,127.00 Z" />
    <path class="key-bg part-0" d="M 306.00,109.50 L 364.00,109.50 Q 368.00,109.50 368.00,113.50 L 368.00,171.50 Q 368.00,175.50 364.00,175.50 L 306.00,175.50 Q 302.00,175.50 302.00,171.50 L 302.00,113.50 Q 302.00,109.50 306.00,109.50 Z" />
    <path class="key-bg part-0" d="M 236.00,92.00 L 294.00,92.00 Q 298.00,92.00 298.00,96.00 L 298.00,154.00 Q 298.00,158.00 294.00,158.00 L 236.00,158.00 Q 232.00,158.00 232.00,154.00 L 232.00,96.00 Q 232.00,92.00 236.00,92.00 Z" />
    <path class="key-bg part-0" d="M 166.00,109.50 L 224.00,109.50 Q 228.00,109.50 228.00,113.50 L 228.00,171.50 Q 228.00,175.50 224.00,175.50 L 166.00,175.50 Q 162.00,175.50 162.00,171.50 L 162.00,113.50 Q 162.00,109.50 166.00,109.50 Z" />
    <path class="key-bg part-0" d="M 96.00,144.50 L 154.00,144.50 Q 158.00,144.50 158.00,148.50 L 158.00,206.50 Q 158.00,210.50 154.00,210.50 L 96.00,210.50 Q 92.00,210.50 92.00,206.50 L 92.00,148.50 Q 92.00,144.50 96.00,144.50 Z" />
    <path class="key-bg part-0" d="M 26.00,144.50 L 84.00,144.50 Q 88.00,144.50 88.00,148.50 L 88.00,206.50 Q 88.00,210.50 84.00,210.50 L 26.00,210.50 Q 22.00,210.50 22.00,206.50 L 22.00,148.50 Q 22.00,144.50 26.00,144.50 Z" />
    <path class="key-bg part-0" d="M 516.00,197.00 L 574.00,197.00 Q 578.00,197.00 578.00,201.00 L 578.00,259.00 Q 578.00,263.00 574.00,263.00 L 516.00,263.00 Q 512.00,263.00 512.00,259.00 L 512.00,201.00 Q 512.00,197.00 516.00,197.00 Z" />
    <path class="key-bg part-0" d="M 376.00,197.00 L 434.00,197.00 Q 438.00,197.00 438.00,201.00 L 438.00,259.00 Q 438.00,263.00 434.00,263.00 L 376.00,263.00 Q 372.00,263.00 372.00,259.00 L 372.00,201.00 Q 372.00,197.00 376.00,197.00 Z" />
    <path class="key-bg part-0" d="M 306.00,179.50 L 364.00,179.50 Q 368.00,179.50 368.00,183.50 L 368.00,241.50 Q 368.00,245.50 364.00,245.50 L 306.00,245.50 Q 302.00,245.50 302.00,241.50 L 302.00,183.50 Q 302.00,179.50 306.00,179.50 Z" />
    <path class="key-bg part-0" d="M 236.00,162.00 L 294.00,162.00 Q 298.00,162.00 298.00,166.00 L 298.00,224.00 Q 298.00,228.00 294.00,228.00 L 236.00,228.00 Q 232.00,228.00 232.00,224.00 L 232.00,166.00 Q 232.00,162.00 236.00,162.00 Z" />
    <path class="key-bg part-0" d="M 166.00,179.50 L 224.00,179.50 Q 228.00,179.50 228.00,183.50 L 228.00,241.50 Q 228.00,245.50 224.00,245.50 L 166.00,245.50 Q 162.00,245.50 162.00,241.50 L 162.00,183.50 Q 162.00,179.50 166.00,179.50 Z" />
    <path class="key-bg part-0" d="M 96.00,214.50 L 154.00,214.50 Q 158.00,214.50 158.00,218.50 L 158.00,276.50 Q 158.00,280.50 154.00,280.50 L 96.00,280.50 Q 92.00,280.50 92.00,276.50 L 92.00,218.50 Q 92.00,214.50 96.00,214.50 Z" />
    <path class="key-bg part-0" d="M 26.00,214.50 L 84.00,214.50 Q 88.00,214.50 88.00,218.50 L 88.00,276.50 Q 88.00,280.50 84.00,280.50 L 26.00,280.50 Q 22.00,280.50 22.00,276.50 L 22.00,218.50 Q 22.00,214.50 26.00,214.50 Z" />
    <path class="key-bg part-0" d="M 546.74,309.49 L 602.77,324.50 Q 606.63,325.54 605.59,329.40 L 590.58,385.42 Q 589.55,389.29 585.68,388.25 L 529.66,373.24 Q 525.80,372.21 526.83,368.34 L 541.84,312.32 Q 542.88,308.45 546.74,309.49 Z" />
    <path class="key-bg part-0" d="M 479.13,291.37 L 535.15,306.38 Q 539.01,307.42 537.98,311.28 L 522.97,367.31 Q 521.93,371.17 518.07,370.14 L 462.05,355.12 Q 458.18,354.09 459.22,350.22 L 474.23,294.20 Q 475.26,290.34 479.13,291.37 Z" />
    <path class="key-bg part-0" d="M 376.00,267.00 L 434.00,267.00 Q 438.00,267.00 438.00,271.00 L 438.00,329.00 Q 438.00,333.00 434.00,333.00 L 376.00,333.00 Q 372.00,333.00 372.00,329.00 L 372.00,271.00 Q 372.00,267.00 376.00,267.00 Z" />
    <path class="key-bg part-0" d="M 306.00,249.50 L 364.00,249.50 Q 368.00,249.50 368.00,253.50 L 368.00,311.50 Q 368.00,315.50 364.00,315.50 L 306.00,315.50 Q 302.00,315.50 302.00,311.50 L 302.00,253.50 Q 302.00,249.50 306.00,249.50 Z" />
    <path class="key-bg part-0" d="M 236.00,232.00 L 294.00,232.00 Q 298.00,232.00 298.00,236.00 L 298.00,294.00 Q 298.00,298.00 294.00,298.00 L 236.00,298.00 Q 232.00,298.00 232.00,294.00 L 232.00,236.00 Q 232.00,232.00 236.00,232.00 Z" />
    <path class="key-bg part-0" d="M 166.00,249.50 L 224.00,249.50 Q 228.00,249.50 228.00,253.50 L 228.00,311.50 Q 228.00,315.50 224.00,315.50 L 166.00,315.50 Q 162.00,315.50 162.00,311.50 L 162.00,253.50 Q 162.00,249.50 166.00,249.50 Z" />
    <path class="key-bg part-0" d="M 96.00,284.50 L 154.00,284.50 Q 158.00,284.50 158.00,288.50 L 158.00,346.50 Q 158.00,350.50 154.00,350.50 L 96.00,350.50 Q 92.00,350.50 92.00,346.50 L 92.00,288.50 Q 92.00,284.50 96.00,284.50 Z" />
    <path class="key-bg part-0" d="M 26.00,284.50 L 84.00,284.50 Q 88.00,284.50 88.00,288.50 L 88.00,346.50 Q 88.00,350.50 84.00,350.50 L 26.00,350.50 Q 22.00,350.50 22.00,346.50 L 22.00,288.50 Q 22.00,284.50 26.00,284.50 Z" />
    <path class="key-bg part-0" d="M 528.62,377.10 L 584.65,392.12 Q 588.51,393.15 587.48,397.02 L 572.47,453.04 Q 571.43,456.90 567.57,455.87 L 511.54,440.86 Q 507.68,439.82 508.71,435.96 L 523.73,379.93 Q 524.76,376.07 528.62,377.10 Z" />
    <path class="key-bg part-0" d="M 461.01,358.99 L 517.03,374.00 Q 520.90,375.03 519.86,378.90 L 504.85,434.92 Q 503.82,438.79 499.95,437.75 L 443.93,422.74 Q 440.06,421.70 441.10,417.84 L 456.11,361.82 Q 457.15,357.95 461.01,358.99 Z" />
    <path class="key-bg part-0" d="M 393.40,340.87 L 449.42,355.88 Q 453.28,356.92 452.25,360.78 L 437.24,416.80 Q 436.20,420.67 432.34,419.63 L 376.31,404.62 Q 372.45,403.59 373.48,399.72 L 388.50,343.70 Q 389.53,339.83 393.40,340.87 Z" />
    <path class="key-bg part-0" d="M 306.00,337.00 L 364.00,337.00 Q 368.00,337.00 368.00,341.00 L 368.00,399.00 Q 368.00,403.00 364.00,403.00 L 306.00,403.00 Q 302.00,403.00 302.00,399.00 L 302.00,341.00 Q 302.00,337.00 306.00,337.00 Z" />
    <path class="key-bg part-0" d="M 236.00,337.00 L 294.00,337.00 Q 298.00,337.00 298.00,341.00 L 298.00,399.00 Q 298.00,403.00 294.00,403.00 L 236.00,403.00 Q 232.00,403.00 232.00,399.00 L 232.00,341.00 Q 232.00,337.00 236.00,337.00 Z" />
    <path class="key-bg part-0" d="M 166.00,337.00 L 224.00,337.00 Q 228.00,337.00 228.00,341.00 L 228.00,399.00 Q 228.00,403.00 224.00,403.00 L 166.00,403.00 Q 162.00,403.00 162.00,399.00 L 162.00,341.00 Q 162.00,337.00 166.00,337.00 Z" />
    <path class="key-bg part-1" d="M 796.00,57.00 L 854.00,57.00 Q 858.00,57.00 858.00,61.00 L 858.00,119.00 Q 858.00,123.00 854.00,123.00 L 796.00,123.00 Q 792.00,123.00 792.00,119.00 L 792.00,61.00 Q 792.00,57.00 796.00,57.00 Z" />
    <path class="key-bg part-1" d="M 866.00,39.50 L 924.00,39.50 Q 928.00,39.50 928.00,43.50 L 928.00,101.50 Q 928.00,105.50 924.00,105.50 L 866.00,105.50 Q 862.00,105.50 862.00,101.50 L 862.00,43.50 Q 862.00,39.50 866.00,39.50 Z" />
    <path class="key-bg part-1" d="M 936.00,22.00 L 994.00,22.00 Q 998.00,22.00 998.00,26.00 L 998.00,84.00 Q 998.00,88.00 994.00,88.00 L 936.00,88.00 Q 932.00,88.00 932.00,84.00 L 932.00,26.00 Q 932.00,22.00 936.00,22.00 Z" />
    <path class="key-bg part-1" d="M 1006.00,39.50 L 1064.00,39.50 Q 1068.00,39.50 1068.00,43.50 L 1068.00,101.50 Q 1068.00,105.50 1064.00,105.50 L 1006.00,105.50 Q 1002.00,105.50 1002.00,101.50 L 1002.00,43.50 Q 1002.00,39.50 1006.00,39.50 Z" />
    <path class="key-bg part-1" d="M 1076.00,74.50 L 1134.00,74.50 Q 1138.00,74.50 1138.00,78.50 L 1138.00,136.50 Q 1138.00,140.50 1134.00,140.50 L 1076.00,140.50 Q 1072.00,140.50 1072.00,136.50 L 1072.00,78.50 Q 1072.00,74.50 1076.00,74.50 Z" />
    <path class="key-bg part-1" d="M 1146.00,74.50 L 1204.00,74.50 Q 1208.00,74.50 1208.00,78.50 L 1208.00,136.50 Q 1208.00,140.50 1204.00,140.50 L 1146.00,140.50 Q 1142.00,140.50 1142.00,136.50 L 1142.00,78.50 Q 1142.00,74.50 1146.00,74.50 Z" />
    <path class="key-bg part-1" d="M 796.00,127.00 L 854.00,127.00 Q 858.00,127.00 858.00,131.00 L 858.00,189.00 Q 858.00,193.00 854.00,193.00 L 796.00,193.00 Q 792.00,193.00 792.00,189.00 L 792.00,131.00 Q 792.00,127.00 796.00,127.00 Z" />
    <path class="key-bg part-1" d="M 866.00,109.50 L 924.00,109.50 Q 928.00,109.50 928.00,113.50 L 928.00,171.50 Q 928.00,175.50 924.00,175.50 L 866.00,175.50 Q 862.00,175.50 862.00,171.50 L 862.00,113.50 Q 862.00,109.50 866.00,109.50 Z" />
    <path class="key-bg part-1" d="M 936.00,92.00 L 994.00,92.00 Q 998.00,92.00 998.00,96.00 L 998.00,154.00 Q 998.00,158.00 994.00,158.00 L 936.00,158.00 Q 932.00,158.00 932.00,154.00 L 932.00,96.00 Q 932.00,92.00 936.00,92.00 Z" />
    <path class="key-bg part-1" d="M 1006.00,109.50 L 1064.00,109.50 Q 1068.00,109.50 1068.00,113.50 L 1068.00,171.50 Q 1068.00,175.50 1064.00,175.50 L 1006.00,175.50 Q 1002.00,175.50 1002.00,171.50 L 1002.00,113.50 Q 1002.00,109.50 1006.00,109.50 Z" />
    <path class="key-bg part-1" d="M 1076.00,144.50 L 1134.00,144.50 Q 1138.00,144.50 1138.00,148.50 L 1138.00,206.50 Q 1138.00,210.50 1134.00,210.50 L 1076.00,210.50 Q 1072.00,210.50 1072.00,206.50 L 1072.00,148.50 Q 1072.00,144.50 1076.00,144.50 Z" />
    <path class="key-bg part-1" d="M 1146.00,144.50 L 1204.00,144.50 Q 1208.00,144.50 1208.00,148.50 L 1208.00,206.50 Q 1208.00,210.50 1204.00,210.50 L 1146.00,210.50 Q 1142.00,210.50 1142.00,206.50 L 1142.00,148.50 Q 1142.00,144.50 1146.00,144.50 Z" />
    <path class="key-bg part-1" d="M 796.00,197.00 L 854.00,197.00 Q 858.00,197.00 858.00,201.00 L 858.00,259.00 Q 858.00,263.00 854.00,263.00 L 796.00,263.00 Q 792.00,263.00 792.00,259.00 L 792.00,201.00 Q 792.00,197.00 796.00,197.00 Z" />
    <path class="key-bg part-1" d="M 866.00,179.50 L 924.00,179.50 Q 928.00,179.50 928.00,183.50 L 928.00,241.50 Q 928.00,245.50 924.00,245.50 L 866.00,245.50 Q 862.00,245.50 862.00,241.50 L 862.00,183.50 Q 862.00,179.50 866.00,179.50 Z" />
    <path class="key-bg part-1" d="M 936.00,162.00 L 994.00,162.00 Q 998.00,162.00 998.00,166.00 L 998.00,224.00 Q 998.00,228.00 994.00,228.00 L 936.00,228.00 Q 932.00,228.00 932.00,224.00 L 932.00,166.00 Q 932.00,162.00 936.00,162.00 Z" />
    <path class="key-bg part-1" d="M 1006.00,179.50 L 1064.00,179.50 Q 1068.00,179.50 1068.00,183.50 L 1068.00,241.50 Q 1068.00,245.50 1064.00,245.50 L 1006.00,245.50 Q 1002.00,245.50 1002.00,241.50 L 1002.00,183.50 Q 1002.00,179.50 1006.00,179.50 Z" />
    <path class="key-bg part-1" d="M 1076.00,214.50 L 1134.00,214.50 Q 1138.00,214.50 1138.00,218.50 L 1138.00,276.50 Q 1138.00,280.50 1134.00,280.50 L 1076.00,280.50 Q 1072.00,280.50 1072.00,276.50 L 1072.00,218.50 Q 1072.00,214.50 1076.00,214.50 Z" />
    <path class="key-bg part-1" d="M 1146.00,214.50 L 1204.00,214.50 Q 1208.00,214.50 1208.00,218.50 L 1208.00,276.50 Q 1208.00,280.50 1204.00,280.50 L 1146.00,280.50 Q 1142.00,280.50 1142.00,276.50 L 1142.00,218.50 Q 1142.00,214.50 1146.00,214.50 Z" />
    <path class="key-bg part-1" d="M 796.00,267.00 L 854.00,267.00 Q 858.00,267.00 858.00,271.00 L 858.00,329.00 Q 858.00,333.00 854.00,333.00 L 796.00,333.00 Q 792.00,333.00 792.00,329.00 L 792.00,271.00 Q 792.00,267.00 796.00,267.00 Z" />
    <path class="key-bg part-1" d="M 866.00,249.50 L 924.00,249.50 Q 928.00,249.50 928.00,253.50 L 928.00,311.50 Q 928.00,315.50 924.00,315.50 L 866.00,315.50 Q 862.00,315.50 862.00,311.50 L 862.00,253.50 Q 862.00,249.50 866.00,249.50 Z" />
    <path class="key-bg part-1" d="M 936.00,232.00 L 994.00,232.00 Q 998.00,232.00 998.00,236.00 L 998.00,294.00 Q 998.00,298.00 994.00,298.00 L 936.00,298.00 Q 932.00,298.00 932.00,294.00 L 932.00,236.00 Q 932.00,232.00 936.00,232.00 Z" />
    <path class="key-bg part-1" d="M 1006.00,249.50 L 1064.00,249.50 Q 1068.00,249.50 1068.00,253.50 L 1068.00,311.50 Q 1068.00,315.50 1064.00,315.50 L 1006.00,315.50 Q 1002.00,315.50 1002.00,311.50 L 1002.00,253.50 Q 1002.00,249.50 1006.00,249.50 Z" />
    <path class="key-bg part-1" d="M 1076.00,284.50 L 1134.00,284.50 Q 1138.00,284.50 1138.00,288.50 L 1138.00,346.50 Q 1138.00,350.50 1134.00,350.50 L 1076.00,350.50 Q 1072.00,350.50 1072.00,346.50 L 1072.00,288.50 Q 1072.00,284.50 1076.00,284.50 Z" />
    <path class="key-bg part-1" d="M 1146.00,284.50 L 1204.00,284.50 Q 1208.00,284.50 1208.00,288.50 L 1208.00,346.50 Q 1208.00,350.50 1204.00,350.50 L 1146.00,350.50 Q 1142.00,350.50 1142.00,346.50 L 1142.00,288.50 Q 1142.00,284.50 1146.00,284.50 Z" />
    <path class="key-bg part-1" d="M 645.35,392.12 L 701.38,377.10 Q 705.24,376.07 706.27,379.93 L 721.29,435.96 Q 722.32,439.82 718.46,440.86 L 662.43,455.87 Q 658.57,456.90 657.53,453.04 L 642.52,397.02 Q 641.49,393.15 645.35,392.12 Z" />
    <path class="key-bg part-1" d="M 712.97,374.00 L 768.99,358.99 Q 772.85,357.95 773.89,361.82 L 788.90,417.84 Q 789.94,421.70 786.07,422.74 L 730.05,437.75 Q 726.18,438.79 725.15,434.92 L 710.14,378.90 Q 709.10,375.03 712.97,374.00 Z" />
    <path class="key-bg part-1" d="M 780.58,355.88 L 836.60,340.87 Q 840.47,339.83 841.50,343.70 L 856.52,399.72 Q 857.55,403.59 853.69,404.62 L 797.66,419.63 Q 793.80,420.67 792.76,416.80 L 777.75,360.78 Q 776.72,356.92 780.58,355.88 Z" />
    <path class="key-bg part-1" d="M 866.00,337.00 L 924.00,337.00 Q 928.00,337.00 928.00,341.00 L 928.00,399.00 Q 928.00,403.00 924.00,403.00 L 866.00,403.00 Q 862.00,403.00 862.00,399.00 L 862.00,341.00 Q 862.00,337.00 866.00,337.00 Z" />
    <path class="key-bg part-1" d="M 936.00,337.00 L 994.00,337.00 Q 998.00,337.00 998.00,341.00 L 998.00,399.00 Q 998.00,403.00 994.00,403.00 L 936.00,403.00 Q 932.00,403.00 932.00,399.00 L 932.00,341.00 Q 932.00,337.00 936.00,337.00 Z" />
    <path class="key-bg part-1" d="M 1006.00,337.00 L 1064.00,337.00 Q 1068.00,337.00 1068.00,341.00 L 1068.00,399.00 Q 1068.00,403.00 1064.00,403.00 L 1006.00,403.00 Q 1002.00,403.00 1002.00,399.00 L 1002.00,341.00 Q 1002.00,337.00 1006.00,337.00 Z" />
    <path class="key-bg part-1" d="M 627.23,324.50 L 683.26,309.49 Q 687.12,308.45 688.16,312.32 L 703.17,368.34 Q 704.20,372.21 700.34,373.24 L 644.32,388.25 Q 640.45,389.29 639.42,385.42 L 624.41,329.40 Q 623.37,325.54 627.23,324.50 Z" />
  </g>
  <g>
    <text class="key-index" x="405.00" y="78.36" font-size="26">0</text>
    <text class="key-part part-0" x="405.00" y="105.64" font-size="18">left</text>
    <text class="key-index" x="335.00" y="60.86" font-size="26">1</text>
    <text class="key-part part-0" x="335.00" y="88.14" font-size="18">left</text>
    <text class="key-index" x="265.00" y="43.36" font-size="26">2</text>
    <text class="key-part part-0" x="265.00" y="70.64" font-size="18">left</text>
    <text class="key-index" x="195.00" y="60.86" font-size="26">3</text>
    <text class="key-part part-0" x="195.00" y="88.14" font-size="18">left</text>
    <text class="key-index" x="125.00" y="95.86" font-size="26">4</text>
    <text class="key-part part-0" x="125.00" y="123.14" font-size="18">left</text>
    <text class="key-index" x="55.00" y="95.86" font-size="26">5</text>
    <text class="key-part part-0" x="55.00" y="123.14" font-size="18">left</text>
    <text class="key-index" x="405.00" y="148.36" font-size="26">6</text>
    <text class="key-part part-0" x="405.00" y="175.64" font-size="18">left</text>
    <text class="key-index" x="335.00" y="130.86" font-size="26">7</text>
    <text class="key-part part-0" x="335.00" y="158.14" font-size="18">left</text>
    <text class="key-index" x="265.00" y="113.36" font-size="26">8</text>
    <text class="key-part part-0" x="265.00" y="140.64" font-size="18">left</text>
    <text class="key-index" x="195.00" y="130.86" font-size="26">9</text>
    <text class="key-part part-0" x="195.00" y="158.14" font-size="18">left</text>
    <text class="key-index" x="125.00" y="165.86" font-size="26">10</text>
    <text class="key-part part-0" x="125.00" y="193.14" font-size="18">left</text>
    <text class="key-index" x="55.00" y="165.86" font-size="26">11</text>
    <text class="key-part part-0" x="55.00" y="193.14" font-size="18">left</text>
    <text class="key-index" x="545.00" y="218.36" font-size="26">12</text>
    <text class="key-part part-0" x="545.00" y="245.64" font-size="18">left</text>
    <text class="key-index" x="405.00" y="218.36" font-size="26">13</text>
    <text class="key-part part-0" x="405.00" y="245.64" font-size="18">left</text>
    <text class="key-index" x="335.00" y="200.86" font-size="26">14</text>
    <text class="key-part part-0" x="335.00" y="228.14" font-size="18">left</text>
    <text class="key-index" x="265.00" y="183.36" font-size="26">15</text>
    <text class="key-part part-0" x="265.00" y="210.64" font-size="18">left</text>
    <text class="key-index" x="195.00" y="200.86" font-size="26">16</text>
    <text class="key-part part-0" x="195.00" y="228.14" font-size="18">left</text>
    <text class="key-index" x="125.00" y="235.86" font-size="26">17</text>
    <text class="key-part part-0" x="125.00" y="263.14" font-size="18">left</text>
    <text class="key-index" x="55.00" y="235.86" font-size="26">18</text>
    <text class="key-part part-0" x="55.00" y="263.14" font-size="18">left</text>
    <text class="key-index" x="566.21" y="337.23" font-size="26" transform="rotate(15 566.21 348.87)">19</text>
    <text class="key-part part-0" x="566.21" y="364.51" font-size="18" transform="rotate(15 566.21 348.87)">left</text>
    <text class="key-index" x="498.60" y="319.11" font-size="26" transform="rotate(15 498.60 330.75)">20</text>
    <text class="key-part part-0" x="498.60" y="346.39" font-size="18" transform="rotate(15 498.60 330.75)">left</text>
    <text class="key-index" x="405.00" y="288.36" font-size="26">21</text>
    <text class="key-part part-0" x="405.00" y="315.64" font-size="18">left</text>
    <text class="key-index" x="335.00" y="270.86" font-size="26">22</text>
    <text class="key-part part-0" x="335.00" y="298.14" font-size="18">left</text>
    <text class="key-index" x="265.00" y="253.36" font-size="26">23</text>
    <text class="key-part part-0" x="265.00" y="280.64" font-size="18">left</text>
    <text class="key-index" x="195.00" y="270.86" font-size="26">24</text>
    <text class="key-part part-0" x="195.00" y="298.14" font-size="18">left</text>
    <text class="key-index" x="125.00" y="305.86" font-size="26">25</text>
    <text class="key-part part-0" x="125.00" y="333.14" font-size="18">left</text>
    <text class="key-index" x="55.00" y="305.86" font-size="26">26</text>
    <text class="key-part part-0" x="55.00" y="333.14" font-size="18">left</text>
    <text class="key-index" x="548.10" y="404.85" font-size="26" transform="rotate(15 548.10 416.49)">27</text>
    <text class="key-part part-0" x="548.10" y="432.13" font-size="18" transform="rotate(15 548.10 416.49)">left</text>
    <text class="key-index" x="480.48" y="386.73" font-size="26" transform="rotate(15 480.48 398.37)">28</text>
    <text class="key-part part-0" x="480.48" y="414.01" font-size="18" transform="rotate(15 480.48 398.37)">left</text>
    <text class="key-index" x="412.87" y="368.61" font-size="26" transform="rotate(15 412.87 380.25)">29</text>
    <text class="key-part part-0" x="412.87" y="395.89" font-size="18" transform="rotate(15 412.87 380.25)">left</text>
    <text class="key-index" x="335.00" y="358.36" font-size="26">30</text>
    <text class="key-part part-0" x="335.00" y="385.64" font-size="18">left</text>
    <text class="key-index" x="265.00" y="358.36" font-size="26">31</text>
    <text class="key-part part-0" x="265.00" y="385.64" font-size="18">left</text>
    <text class="key-index" x="195.00" y="358.36" font-size="26">32</text>
    <text class="key-part part-0" x="195.00" y="385.64" font-size="18">left</text>
    <text class="key-index" x="825.00" y="78.36" font-size="26">33</text>
    <text class="key-part part-1" x="825.00" y="105.64" font-size="18">right</text>
    <text class="key-index" x="895.00" y="60.86" font-size="26">34</text>
    <text class="key-part part-1" x="895.00" y="88.14" font-size="18">right</text>
    <text class="key-index" x="965.00" y="43.36" font-size="26">35</text>
    <text class="key-part part-1" x="965.00" y="70.64" font-size="18">right</text>
    <text class="key-index" x="1035.00" y="60.86" font-size="26">36</text>
    <text class="key-part part-1" x="1035.00" y="88.14" font-size="18">right</text>
    <text class="key-index" x="1105.00" y="95.86" font-size="26">37</text>
    <text class="key-part part-1" x="1105.00" y="123.14" font-size="18">right</text>
    <text class="key-index" x="1175.00" y="95.86" font-size="26">38</text>
    <text class="key-part part-1" x="1175.00" y="123.14" font-size="18">right</text>
    <text class="key-index" x="825.00" y="148.36" font-size="26">39</text>
    <text class="key-part part-1" x="825.00" y="175.64" font-size="18">right</text>
    <text class="key-index" x="895.00" y="130.86" font-size="26">40</text>
    <text class="key-part part-1" x="895.00" y="158.14" font-size="18">right</text>
    <text class="key-index" x="965.00" y="113.36" font-size="26">41</text>
    <text class="key-part part-1" x="965.00" y="140.64" font-size="18">right</text>
    <text class="key-index" x="1035.00" y="130.86" font-size="26">42</text>
    <text class="key-part part-1" x="1035.00" y="158.14" font-size="18">right</text>
    <text class="key-index" x="1105.00" y="165.86" font-size="26">43</text>
    <text class="key-part part-1" x="1105.00" y="193.14" font-size="18">right</text>
    <text class="key-index" x="1175.00" y="165.86" font-size="26">44</text>
    <text class="key-part part-1" x="1175.00" y="193.14" font-size="18">right</text>
    <text class="key-index" x="825.00" y="218.36" font-size="26">45</text>
    <text class="key-part part-1" x="825.00" y="245.64" font-size="18">right</text>
    <text class="key-index" x="895.00" y="200.86" font-size="26">46</text>
    <text class="key-part part-1" x="895.00" y="228.14" font-size="18">right</text>
    <text class="key-index" x="965.00" y="183.36" font-size="26">47</text>
    <text class="key-part part-1" x="965.00" y="210.64" font-size="18">right</text>
    <text class="key-index" x="1035.00" y="200.86" font-size="26">48</text>
    <text class="key-part part-1" x="1035.00" y="228.14" font-size="18">right</text>
    <text class="key-index" x="1105.00" y="235.86" font-size="26">49</text>
    <text class="key-part part-1" x="1105.00" y="263.14" font-size="18">right</text>
    <text class="key-index" x="1175.00" y="235.86" font-size="26">50</text>
    <text class="key-part part-1" x="1175.00" y="263.14" font-size="18">right</text>
    <text class="key-index" x="825.00" y="288.36" font-size="26">51</text>
    <text class="key-part part-1" x="825.00" y="315.64" font-size="18">right</text>
    <text class="key-index" x="895.00" y="270.86" font-size="26">52</text>
    <text class="key-part part-1" x="895.00" y="298.14" font-size="18">right</text>
    <text class="key-index" x="965.00" y="253.36" font-size="26">53</text>
    <text class="key-part part-1" x="965.00" y="280.64" font-size="18">right</text>
    <text class="key-index" x="1035.00" y="270.86" font-size="26">54</text>
    <text class="key-part part-1" x="1035.00" y="298.14" font-size="18">right</text>
    <text class="key-index" x="1105.00" y="305.86" font-size="26">55</text>
    <text class="key-part part-1" x="1105.00" y="333.14" font-size="18">right</text>
    <text class="key-index" x="1175.00" y="305.86" font-size="26">56</text>
    <text class="key-part part-1" x="1175.00" y="333.14" font-size="18">right</text>
    <text class="key-index" x="681.90" y="404.85" font-size="26" transform="rotate(-15 681.90 416.49)">57</text>
    <text class="key-part part-1" x="681.90" y="432.13" font-size="18" transform="rotate(-15 681.90 416.49)">right</text>
    <text class="key-index" x="749.52" y="386.73" font-size="26" transform="rotate(-15 749.52 398.37)">58</text>
    <text class="key-part part-1" x="749.52" y="414.01" font-size="18" transform="rotate(-15 749.52 398.37)">right</text>
    <text class="key-index" x="817.13" y="368.61" font-size="26" transform="rotate(-15 817.13 380.25)">59</text>
    <text class="key-part part-1" x="817.13" y="395.89" font-size="18" transform="rotate(-15 817.13 380.25)">right</text>
    <text class="key-index" x="895.00" y="358.36" font-size="26">60</text>
    <text class="key-part part-1" x="895.00" y="385.64" font-size="18">right</text>
    <text class="key-index" x="965.00" y="358.36" font-size="26">61</text>
    <text class="key-part part-1" x="965.00" y="385.64" font-size="18">right</text>
    <text class="key-index" x="1035.00" y="358.36" font-size="26">62</text>
    <text class="key-part part-1" x="1035.00" y="385.64" font-size="18">right</text>
    <text class="key-index" x="663.79" y="337.23" font-size="26" transform="rotate(-15 663.79 348.87)">63</text>
    <text class="key-part part-1" x="663.79" y="364.51" font-size="18" transform="rotate(-15 663.79 348.87)">right</text>
  </g>
</svg>
